<svg width="64" height="64" viewBox="0 0 64 64" fill="none" xmlns="http://www.w3.org/2000/svg">
<g clip-path="url(#clip0_2570_664)">
<mask id="mask0_2570_664" style="mask-type:alpha" maskUnits="userSpaceOnUse" x="0" y="0" width="64" height="64">
<path fill-rule="evenodd" clip-rule="evenodd" d="M64 0H0V64H64V0ZM26.3519 21.48C25.2639 21.1387 24.0799 20.968 22.7999 20.968C21.5839 20.968 20.4853 21.096 19.5039 21.352C18.5226 21.608 17.7013 21.9494 17.0399 22.376C16.6133 22.6747 16.2719 23.0054 16.0159 23.368C15.7813 23.7307 15.6639 24.2 15.6639 24.776V40.136C15.6639 40.6694 15.7279 41.096 15.8559 41.416C15.9839 41.7574 16.1759 42.024 16.4319 42.216C16.6879 42.408 16.9973 42.536 17.3599 42.6C17.7439 42.664 18.1706 42.696 18.6399 42.696C19.1306 42.696 19.6106 42.6534 20.0799 42.568C20.5493 42.504 20.8906 42.44 21.1039 42.376V37.064C21.8933 37.3414 22.7466 37.48 23.6639 37.48C24.8799 37.48 25.9786 37.3094 26.9599 36.968C27.9626 36.6267 28.8159 36.1147 29.5199 35.432C30.2239 34.728 30.7679 33.864 31.1519 32.84C31.5359 31.816 31.7279 30.6214 31.7279 29.256C31.7279 27.8267 31.5039 26.6 31.0559 25.576C30.6079 24.5307 29.9893 23.6667 29.1999 22.984C28.4106 22.3014 27.4613 21.8 26.3519 21.48ZM26.1599 29.256C26.1599 31.88 25.0613 33.192 22.8639 33.192C22.5226 33.192 22.2026 33.1494 21.9039 33.064C21.6053 32.9787 21.3279 32.872 21.0719 32.744V25.704C21.3066 25.576 21.5839 25.4694 21.9039 25.384C22.2239 25.2774 22.5866 25.224 22.9919 25.224C24.0159 25.224 24.7946 25.5547 25.3279 26.216C25.8826 26.8774 26.1599 27.8907 26.1599 29.256ZM46.3507 21.48C45.2627 21.1387 44.0787 20.968 42.7987 20.968C41.5827 20.968 40.484 21.096 39.5027 21.352C38.5214 21.608 37.7 21.9494 37.0387 22.376C36.612 22.6747 36.2707 23.0054 36.0147 23.368C35.78 23.7307 35.6627 24.2 35.6627 24.776V40.136C35.6627 40.6694 35.7267 41.096 35.8547 41.416C35.9827 41.7574 36.1747 42.024 36.4307 42.216C36.6867 42.408 36.996 42.536 37.3587 42.6C37.7427 42.664 38.1694 42.696 38.6387 42.696C39.1294 42.696 39.6094 42.6534 40.0787 42.568C40.548 42.504 40.8894 42.44 41.1027 42.376V37.064C41.892 37.3414 42.7454 37.48 43.6627 37.48C44.8787 37.48 45.9774 37.3094 46.9587 36.968C47.9614 36.6267 48.8147 36.1147 49.5187 35.432C50.2227 34.728 50.7667 33.864 51.1507 32.84C51.5347 31.816 51.7267 30.6214 51.7267 29.256C51.7267 27.8267 51.5027 26.6 51.0547 25.576C50.6067 24.5307 49.988 23.6667 49.1987 22.984C48.4094 22.3014 47.46 21.8 46.3507 21.48ZM46.1587 29.256C46.1587 31.88 45.06 33.192 42.8627 33.192C42.5214 33.192 42.2014 33.1494 41.9027 33.064C41.604 32.9787 41.3267 32.872 41.0707 32.744V25.704C41.3054 25.576 41.5827 25.4694 41.9027 25.384C42.2227 25.2774 42.5854 25.224 42.9907 25.224C44.0147 25.224 44.7934 25.5547 45.3267 26.216C45.8814 26.8774 46.1587 27.8907 46.1587 29.256Z" fill="#D9D9D9"/>
</mask>
<g mask="url(#mask0_2570_664)">
<circle cx="32" cy="32" r="32" fill="#0C0C0C"/>
<g filter="url(#filter0_dddddd_2570_664)">
<path d="M22.7999 20.968C24.0799 20.968 25.2639 21.1387 26.3519 21.48C27.4613 21.8 28.4106 22.3014 29.1999 22.984C29.9893 23.6667 30.6079 24.5307 31.0559 25.576C31.5039 26.6 31.7279 27.8267 31.7279 29.256C31.7279 30.6214 31.5359 31.816 31.1519 32.84C30.7679 33.864 30.2239 34.728 29.5199 35.432C28.8159 36.1147 27.9626 36.6267 26.9599 36.968C25.9786 37.3094 24.8799 37.48 23.6639 37.48C22.7466 37.48 21.8933 37.3414 21.1039 37.064V42.376C20.8906 42.44 20.5493 42.504 20.0799 42.568C19.6106 42.6534 19.1306 42.696 18.6399 42.696C18.1706 42.696 17.7439 42.664 17.3599 42.6C16.9973 42.536 16.6879 42.408 16.4319 42.216C16.1759 42.024 15.9839 41.7574 15.8559 41.416C15.7279 41.096 15.6639 40.6694 15.6639 40.136V24.776C15.6639 24.2 15.7813 23.7307 16.0159 23.368C16.2719 23.0054 16.6133 22.6747 17.0399 22.376C17.7013 21.9494 18.5226 21.608 19.5039 21.352C20.4853 21.096 21.5839 20.968 22.7999 20.968ZM22.8639 33.192C25.0613 33.192 26.1599 31.88 26.1599 29.256C26.1599 27.8907 25.8826 26.8774 25.3279 26.216C24.7946 25.5547 24.0159 25.224 22.9919 25.224C22.5866 25.224 22.2239 25.2774 21.9039 25.384C21.5839 25.4694 21.3066 25.576 21.0719 25.704V32.744C21.3279 32.872 21.6053 32.9787 21.9039 33.064C22.2026 33.1494 22.5226 33.192 22.8639 33.192Z" fill="#F5F5F5"/>
<path d="M42.7987 20.968C44.0787 20.968 45.2627 21.1387 46.3507 21.48C47.46 21.8 48.4094 22.3014 49.1987 22.984C49.988 23.6667 50.6067 24.5307 51.0547 25.576C51.5027 26.6 51.7267 27.8267 51.7267 29.256C51.7267 30.6214 51.5347 31.816 51.1507 32.84C50.7667 33.864 50.2227 34.728 49.5187 35.432C48.8147 36.1147 47.9614 36.6267 46.9587 36.968C45.9774 37.3094 44.8787 37.48 43.6627 37.48C42.7454 37.48 41.892 37.3414 41.1027 37.064V42.376C40.8894 42.44 40.548 42.504 40.0787 42.568C39.6094 42.6534 39.1294 42.696 38.6387 42.696C38.1694 42.696 37.7427 42.664 37.3587 42.6C36.996 42.536 36.6867 42.408 36.4307 42.216C36.1747 42.024 35.9827 41.7574 35.8547 41.416C35.7267 41.096 35.6627 40.6694 35.6627 40.136V24.776C35.6627 24.2 35.78 23.7307 36.0147 23.368C36.2707 23.0054 36.612 22.6747 37.0387 22.376C37.7 21.9494 38.5214 21.608 39.5027 21.352C40.484 21.096 41.5827 20.968 42.7987 20.968ZM42.8627 33.192C45.06 33.192 46.1587 31.88 46.1587 29.256C46.1587 27.8907 45.8814 26.8774 45.3267 26.216C44.7934 25.5547 44.0147 25.224 42.9907 25.224C42.5854 25.224 42.2227 25.2774 41.9027 25.384C41.5827 25.4694 41.3054 25.576 41.0707 25.704V32.744C41.3267 32.872 41.604 32.9787 41.9027 33.064C42.2014 33.1494 42.5214 33.192 42.8627 33.192Z" fill="#F5F5F5"/>
</g>
</g>
</g>
<defs>
<filter id="filter0_dddddd_2570_664" x="-64.3361" y="20.968" width="196.063" height="201.728" filterUnits="userSpaceOnUse" color-interpolation-filters="sRGB">
<feFlood flood-opacity="0" result="BackgroundImageFix"/>
<feColorMatrix in="SourceAlpha" type="matrix" values="0 0 0 0 0 0 0 0 0 0 0 0 0 0 0 0 0 0 127 0" result="hardAlpha"/>
<feOffset dy="2.76726"/>
<feGaussianBlur stdDeviation="1.1069"/>
<feColorMatrix type="matrix" values="0 0 0 0 0 0 0 0 0 0 0 0 0 0 0 0 0 0 0.0196802 0"/>
<feBlend mode="normal" in2="BackgroundImageFix" result="effect1_dropShadow_2570_664"/>
<feColorMatrix in="SourceAlpha" type="matrix" values="0 0 0 0 0 0 0 0 0 0 0 0 0 0 0 0 0 0 127 0" result="hardAlpha"/>
<feOffset dy="6.6501"/>
<feGaussianBlur stdDeviation="2.66004"/>
<feColorMatrix type="matrix" values="0 0 0 0 0 0 0 0 0 0 0 0 0 0 0 0 0 0 0.0282725 0"/>
<feBlend mode="normal" in2="effect1_dropShadow_2570_664" result="effect2_dropShadow_2570_664"/>
<feColorMatrix in="SourceAlpha" type="matrix" values="0 0 0 0 0 0 0 0 0 0 0 0 0 0 0 0 0 0 127 0" result="hardAlpha"/>
<feOffset dy="12.5216"/>
<feGaussianBlur stdDeviation="5.00862"/>
<feColorMatrix type="matrix" values="0 0 0 0 0 0 0 0 0 0 0 0 0 0 0 0 0 0 0.035 0"/>
<feBlend mode="normal" in2="effect2_dropShadow_2570_664" result="effect3_dropShadow_2570_664"/>
<feColorMatrix in="SourceAlpha" type="matrix" values="0 0 0 0 0 0 0 0 0 0 0 0 0 0 0 0 0 0 127 0" result="hardAlpha"/>
<feOffset dy="22.3363"/>
<feGaussianBlur stdDeviation="8.93452"/>
<feColorMatrix type="matrix" values="0 0 0 0 0 0 0 0 0 0 0 0 0 0 0 0 0 0 0.0417275 0"/>
<feBlend mode="normal" in2="effect3_dropShadow_2570_664" result="effect4_dropShadow_2570_664"/>
<feColorMatrix in="SourceAlpha" type="matrix" values="0 0 0 0 0 0 0 0 0 0 0 0 0 0 0 0 0 0 127 0" result="hardAlpha"/>
<feOffset dy="41.7776"/>
<feGaussianBlur stdDeviation="16.711"/>
<feColorMatrix type="matrix" values="0 0 0 0 0 0 0 0 0 0 0 0 0 0 0 0 0 0 0.0503198 0"/>
<feBlend mode="normal" in2="effect4_dropShadow_2570_664" result="effect5_dropShadow_2570_664"/>
<feColorMatrix in="SourceAlpha" type="matrix" values="0 0 0 0 0 0 0 0 0 0 0 0 0 0 0 0 0 0 127 0" result="hardAlpha"/>
<feOffset dy="100"/>
<feGaussianBlur stdDeviation="40"/>
<feColorMatrix type="matrix" values="0 0 0 0 0 0 0 0 0 0 0 0 0 0 0 0 0 0 0.07 0"/>
<feBlend mode="normal" in2="effect5_dropShadow_2570_664" result="effect6_dropShadow_2570_664"/>
<feBlend mode="normal" in="SourceGraphic" in2="effect6_dropShadow_2570_664" result="shape"/>
</filter>
<clipPath id="clip0_2570_664">
<rect width="64" height="64" fill="white"/>
</clipPath>
</defs>
</svg>
